adventpro-Thin.ufo
<glyph name="quotesingle" format="1">
  <advance width="87"/>
  <unicode hex="0027"/>
  <outline>
    <contour>
      <point x="28" y="722" type="line"/>
      <point x="28" y="729"/>
      <point x="37" y="736"/>
      <point x="48" y="736"/>
      <point x="57" y="729"/>
      <point x="57" y="722" type="qcurve"/>
      <point x="50" y="587" type="line"/>
      <point x="34" y="587" type="line"/>
    </contour>
  </outline>
</glyph>
<glyph name="plus" format="1">
  <advance width="376"/>
  <unicode hex="002B"/>
  <outline>
    <contour>
      <point x="196" y="528" type="line"/>
      <point x="196" y="378" type="line"/>
      <point x="346" y="378" type="line"/>
      <point x="346" y="361" type="line"/>
      <point x="196" y="361" type="line"/>
      <point x="196" y="209" type="line"/>
      <point x="177" y="209" type="line"/>
      <point x="177" y="361" type="line"/>
      <point x="27" y="361" type="line"/>
      <point x="27" y="378" type="line"/>
      <point x="177" y="378" type="line"/>
      <point x="177" y="528" type="line"/>
    </contour>
  </outline>
</glyph>
<glyph name="comma" format="1">
  <advance width="111"/>
  <unicode hex="002C"/>
  <outline>
    <contour>
      <point x="30" y="-57" type="line"/>
      <point x="44" y="-43"/>
      <point x="55" y="-14"/>
      <point x="56" y="-3" type="qcurve"/>
      <point x="51" y="-1"/>
      <point x="45" y="7"/>
      <point x="45" y="13" type="qcurve" smooth="yes"/>
      <point x="45" y="20"/>
      <point x="54" y="30"/>
      <point x="61" y="30" type="qcurve" smooth="yes"/>
      <point x="69" y="30"/>
      <point x="78" y="21"/>
      <point x="78" y="13" type="qcurve" smooth="yes"/>
      <point x="78" y="-7"/>
      <point x="66" y="-36"/>
      <point x="51" y="-55"/>
      <point x="39" y="-64"/>
      <point x="39" y="-64" type="qcurve"/>
    </contour>
  </outline>
</glyph>
<glyph name="five" format="1">
  <advance width="439"/>
  <unicode hex="0035"/>
  <outline>
    <contour>
      <point x="80" y="411" type="line"/>
      <point x="174" y="413" type="line"/>
      <point x="256" y="413"/>
      <point x="360" y="356"/>
      <point x="411" y="258"/>
      <point x="411" y="198" type="qcurve" smooth="yes"/>
      <point x="411" y="152"/>
      <point x="378" y="75"/>
      <point x="320" y="19"/>
      <point x="244" y="-12"/>
      <point x="201" y="-12" type="qcurve" smooth="yes"/>
      <point x="165" y="-12"/>
      <point x="103" y="4"/>
      <point x="55" y="26"/>
      <point x="28" y="42"/>
      <point x="28" y="42" type="qcurve"/>
      <point x="36" y="59" type="line"/>
      <point x="36" y="59"/>
      <point x="81" y="33"/>
      <point x="156" y="7"/>
      <point x="200" y="7" type="qcurve" smooth="yes"/>
      <point x="248" y="7"/>
      <point x="336" y="52"/>
      <point x="392" y="138"/>
      <point x="392" y="199" type="qcurve" smooth="yes"/>
      <point x="392" y="248"/>
      <point x="349" y="337"/>
      <point x="254" y="393"/>
      <point x="175" y="393" type="qcurve" smooth="yes"/>
      <point x="59" y="393" type="line"/>
      <point x="91" y="698" type="line"/>
      <point x="356" y="698" type="line"/>
      <point x="356" y="678" type="line"/>
      <point x="108" y="678" type="line"/>
    </contour>
  </outline>
</glyph>
<glyph name="colon" format="1">
  <advance width="110"/>
  <unicode hex="003A"/>
  <outline>
    <contour>
      <point x="70" y="143" type="qcurve" smooth="yes"/>
      <point x="70" y="136"/>
      <point x="60" y="127"/>
      <point x="53" y="127" type="qcurve" smooth="yes"/>
      <point x="46" y="127"/>
      <point x="36" y="136"/>
      <point x="36" y="143" type="qcurve" smooth="yes"/>
      <point x="36" y="151"/>
      <point x="46" y="159"/>
      <point x="53" y="159" type="qcurve" smooth="yes"/>
      <point x="60" y="159"/>
      <point x="70" y="151"/>
    </contour>
    <contour>
      <point x="70" y="384" type="qcurve" smooth="yes"/>
      <point x="70" y="377"/>
      <point x="60" y="367"/>
      <point x="53" y="367" type="qcurve" smooth="yes"/>
      <point x="46" y="367"/>
      <point x="36" y="377"/>
      <point x="36" y="384" type="qcurve" smooth="yes"/>
      <point x="36" y="391"/>
      <point x="46" y="400"/>
      <point x="53" y="400" type="qcurve" smooth="yes"/>
      <point x="60" y="400"/>
      <point x="70" y="391"/>
    </contour>
  </outline>
</glyph>
<glyph name="semicolon" format="1">
  <advance width="122"/>
  <unicode hex="003B"/>
  <outline>
    <contour>
      <point x="35" y="68" type="line"/>
      <point x="49" y="82"/>
      <point x="59" y="113"/>
      <point x="60" y="123" type="qcurve"/>
      <point x="55" y="125"/>
      <point x="49" y="134"/>
      <point x="49" y="140" type="qcurve" smooth="yes"/>
      <point x="49" y="146"/>
      <point x="59" y="156"/>
      <point x="65" y="156" type="qcurve" smooth="yes"/>
      <point x="73" y="156"/>
      <point x="82" y="148"/>
      <point x="82" y="140" type="qcurve" smooth="yes"/>
      <point x="82" y="120"/>
      <point x="70" y="91"/>
      <point x="55" y="72"/>
      <point x="43" y="63"/>
      <point x="43" y="63" type="qcurve"/>
    </contour>
    <contour>
      <point x="83" y="384" type="qcurve" smooth="yes"/>
      <point x="83" y="377"/>
      <point x="73" y="367"/>
      <point x="67" y="367" type="qcurve" smooth="yes"/>
      <point x="60" y="367"/>
      <point x="49" y="377"/>
      <point x="49" y="384" type="qcurve" smooth="yes"/>
      <point x="49" y="391"/>
      <point x="60" y="400"/>
      <point x="67" y="400" type="qcurve" smooth="yes"/>
      <point x="73" y="400"/>
      <point x="83" y="391"/>
    </contour>
  </outline>
</glyph>
<glyph name="greater" format="1">
  <advance width="350"/>
  <unicode hex="003E"/>
  <outline>
    <contour>
      <point x="30" y="623" type="line"/>
      <point x="44" y="635" type="line"/>
      <point x="321" y="358" type="line"/>
      <point x="44" y="79" type="line"/>
      <point x="30" y="94" type="line"/>
      <point x="298" y="356" type="line"/>
    </contour>
  </outline>
</glyph>
<glyph name="C" format="1">
  <advance width="420"/>
  <unicode hex="0043"/>
    <anchor name="bottom" x="210" y="0"/>
    <anchor name="top" x="210" y="735"/>
  <outline>
    <contour>
      <point x="362" y="658" type="line"/>
      <point x="327" y="674"/>
      <point x="262" y="689"/>
      <point x="231" y="689" type="qcurve" smooth="yes"/>
      <point x="144" y="689"/>
      <point x="53" y="595"/>
      <point x="53" y="512" type="qcurve" smooth="yes"/>
      <point x="53" y="185" type="line"/>
      <point x="52" y="120"/>
      <point x="100" y="42"/>
      <point x="184" y="8"/>
      <point x="237" y="8" type="qcurve" smooth="yes"/>
      <point x="257" y="8"/>
      <point x="305" y="15"/>
      <point x="360" y="30"/>
      <point x="389" y="41" type="qcurve"/>
      <point x="395" y="23" type="line"/>
      <point x="310" y="-10"/>
      <point x="233" y="-10" type="qcurve" smooth="yes"/>
      <point x="218" y="-10"/>
      <point x="152" y="-4"/>
      <point x="116" y="15" type="qcurve" smooth="yes"/>
      <point x="78" y="36"/>
      <point x="34" y="120"/>
      <point x="34" y="183" type="qcurve" smooth="yes"/>
      <point x="34" y="512" type="line" smooth="yes"/>
      <point x="34" y="587"/>
      <point x="89" y="673"/>
      <point x="178" y="708"/>
      <point x="228" y="708" type="qcurve" smooth="yes"/>
      <point x="309" y="708"/>
      <point x="370" y="675" type="qcurve"/>
    </contour>
    <contour>
      <point x="210" y="0" type="move" name="bottom"/>
    </contour>
    <contour>
      <point x="210" y="735" type="move" name="top"/>
    </contour>
  </outline>
</glyph>
<glyph name="G" format="1">
  <advance width="475"/>
  <unicode hex="0047"/>
    <anchor name="bottom" x="237" y="0"/>
    <anchor name="top" x="237" y="735"/>
  <outline>
    <contour>
      <point x="362" y="657" type="line"/>
      <point x="325" y="673"/>
      <point x="259" y="689"/>
      <point x="230" y="689" type="qcurve" smooth="yes"/>
      <point x="189" y="689"/>
      <point x="124" y="667"/>
      <point x="101" y="645" type="qcurve"/>
      <point x="82" y="624"/>
      <point x="53" y="547"/>
      <point x="53" y="495" type="qcurve" smooth="yes"/>
      <point x="53" y="186" type="line" smooth="yes"/>
      <point x="53" y="108"/>
      <point x="157" y="9"/>
      <point x="248" y="9" type="qcurve" smooth="yes"/>
      <point x="339" y="9"/>
      <point x="383" y="58" type="qcurve"/>
      <point x="404" y="83"/>
      <point x="425" y="145"/>
      <point x="425" y="182" type="qcurve" smooth="yes"/>
      <point x="425" y="280" type="line"/>
      <point x="250" y="280" type="line"/>
      <point x="242" y="299" type="line"/>
      <point x="444" y="299" type="line"/>
      <point x="444" y="0" type="line"/>
      <point x="425" y="0" type="line"/>
      <point x="425" y="88" type="line"/>
      <point x="410" y="55"/>
      <point x="359" y="12"/>
      <point x="290" y="-10"/>
      <point x="245" y="-10" type="qcurve" smooth="yes"/>
      <point x="200" y="-10"/>
      <point x="126" y="15"/>
      <point x="95" y="40" type="qcurve" smooth="yes"/>
      <point x="64" y="65"/>
      <point x="33" y="139"/>
      <point x="33" y="188" type="qcurve" smooth="yes"/>
      <point x="33" y="502" type="line" smooth="yes"/>
      <point x="33" y="565"/>
      <point x="77" y="656"/>
      <point x="120" y="682" type="qcurve"/>
      <point x="143" y="694"/>
      <point x="196" y="707"/>
      <point x="227" y="707" type="qcurve" smooth="yes"/>
      <point x="305" y="707"/>
      <point x="369" y="674" type="qcurve"/>
    </contour>
    <contour>
      <point x="237" y="0" type="move" name="bottom"/>
    </contour>
    <contour>
      <point x="237" y="735" type="move" name="top"/>
    </contour>
  </outline>
</glyph>
<glyph name="O" format="1">
  <advance width="486"/>
  <unicode hex="004F"/>
    <anchor name="top" x="243" y="735"/>
    <anchor name="tonos" x="81" y="700"/>
  <outline>
    <contour>
      <point x="33" y="506" type="line" smooth="yes"/>
      <point x="33" y="608"/>
      <point x="146" y="714"/>
      <point x="245" y="714" type="qcurve" smooth="yes"/>
      <point x="343" y="714"/>
      <point x="451" y="603"/>
      <point x="451" y="505" type="qcurve" smooth="yes"/>
      <point x="451" y="185" type="line" smooth="yes"/>
      <point x="451" y="124"/>
      <point x="399" y="36"/>
      <point x="306" y="-11"/>
      <point x="243" y="-11" type="qcurve" smooth="yes"/>
      <point x="185" y="-11"/>
      <point x="89" y="33"/>
      <point x="33" y="121"/>
      <point x="33" y="185" type="qcurve" smooth="yes"/>
    </contour>
    <contour>
      <point x="52" y="184" type="line" smooth="yes"/>
      <point x="52" y="131"/>
      <point x="103" y="51"/>
      <point x="190" y="8"/>
      <point x="243" y="8" type="qcurve" smooth="yes"/>
      <point x="297" y="8"/>
      <point x="383" y="47"/>
      <point x="433" y="125"/>
      <point x="433" y="184" type="qcurve" smooth="yes"/>
      <point x="433" y="508" type="line" smooth="yes"/>
      <point x="433" y="595"/>
      <point x="337" y="693"/>
      <point x="242" y="693" type="qcurve" smooth="yes"/>
      <point x="148" y="693"/>
      <point x="52" y="592"/>
      <point x="52" y="506" type="qcurve" smooth="yes"/>
    </contour>
    <contour>
      <point x="243" y="735" type="move" name="top"/>
    </contour>
    <contour>
      <point x="81" y="700" type="move" name="tonos"/>
    </contour>
  </outline>
</glyph>
<glyph name="S" format="1">
  <advance width="523"/>
  <unicode hex="0053"/>
    <anchor name="bottom" x="261" y="0"/>
    <anchor name="top" x="261" y="735"/>
  <outline>
    <contour>
      <point x="427" y="651" type="line"/>
      <point x="386" y="677"/>
      <point x="325" y="691"/>
      <point x="277" y="691" type="curve" smooth="yes"/>
      <point x="186" y="691"/>
      <point x="77" y="651"/>
      <point x="77" y="543" type="curve" smooth="yes"/>
      <point x="77" y="458"/>
      <point x="157" y="425"/>
      <point x="225" y="398" type="curve" smooth="yes"/>
      <point x="272" y="379"/>
      <point x="337" y="359"/>
      <point x="390" y="328" type="curve" smooth="yes"/>
      <point x="449" y="293"/>
      <point x="495" y="245"/>
      <point x="495" y="173" type="curve"/>
      <point x="495" y="39"/>
      <point x="373" y="-12"/>
      <point x="257" y="-12" type="curve" smooth="yes"/>
      <point x="168" y="-12"/>
      <point x="73" y="23"/>
      <point x="21" y="99" type="curve"/>
      <point x="34" y="109" type="line"/>
      <point x="87" y="40"/>
      <point x="172" y="7"/>
      <point x="257" y="7" type="curve" smooth="yes"/>
      <point x="364" y="7"/>
      <point x="476" y="53"/>
      <point x="476" y="172" type="curve" smooth="yes"/>
      <point x="476" y="238"/>
      <point x="436" y="281"/>
      <point x="381" y="312" type="curve" smooth="yes"/>
      <point x="335" y="338"/>
      <point x="276" y="357"/>
      <point x="223" y="378" type="curve" smooth="yes"/>
      <point x="135" y="413"/>
      <point x="58" y="452"/>
      <point x="58" y="540" type="curve" smooth="yes"/>
      <point x="58" y="662"/>
      <point x="172" y="708"/>
      <point x="276" y="708" type="curve" smooth="yes"/>
      <point x="330" y="708"/>
      <point x="386" y="695"/>
      <point x="434" y="670" type="curve"/>
    </contour>
    <contour>
      <point x="261" y="0" type="move" name="bottom"/>
    </contour>
    <contour>
      <point x="261" y="735" type="move" name="top"/>
    </contour>
  </outline>
</glyph>
<glyph name="backslash" format="1">
  <advance width="377"/>
  <unicode hex="005C"/>
  <outline>
    <contour>
      <point x="340" y="-113" type="line"/>
      <point x="16" y="815" type="line"/>
      <point x="37" y="815" type="line"/>
      <point x="360" y="-113" type="line"/>
    </contour>
  </outline>
</glyph>
<glyph name="underscore" format="1">
  <advance width="382"/>
  <unicode hex="005F"/>
  <outline>
    <contour>
      <point x="33" y="-20" type="line"/>
      <point x="33" y="0" type="line"/>
      <point x="352" y="0" type="line"/>
      <point x="352" y="-20" type="line"/>
    </contour>
  </outline>
</glyph>
<glyph name="d" format="1">
  <advance width="455"/>
  <unicode hex="0064"/>
    <anchor name="top" x="227" y="735"/>
  <outline>
    <contour>
      <point x="412" y="-1" type="line"/>
      <point x="412" y="-1"/>
      <point x="369" y="-4"/>
      <point x="306" y="-8"/>
      <point x="248" y="-11"/>
      <point x="233" y="-11" type="qcurve" smooth="yes"/>
      <point x="160" y="-11"/>
      <point x="70" y="29"/>
      <point x="28" y="109"/>
      <point x="28" y="168" type="qcurve" smooth="yes"/>
      <point x="28" y="358" type="line" smooth="yes"/>
      <point x="28" y="390"/>
      <point x="62" y="459"/>
      <point x="140" y="508"/>
      <point x="207" y="508" type="qcurve" smooth="yes"/>
      <point x="262" y="508"/>
      <point x="354" y="487"/>
      <point x="393" y="470" type="qcurve"/>
      <point x="393" y="698" type="line"/>
      <point x="412" y="698" type="line"/>
    </contour>
    <contour>
      <point x="393" y="450" type="line"/>
      <point x="354" y="468"/>
      <point x="261" y="491"/>
      <point x="205" y="491" type="qcurve" smooth="yes"/>
      <point x="154" y="491"/>
      <point x="84" y="454"/>
      <point x="48" y="392"/>
      <point x="48" y="354" type="qcurve" smooth="yes"/>
      <point x="48" y="161" type="line" smooth="yes"/>
      <point x="48" y="134"/>
      <point x="62" y="79"/>
      <point x="102" y="33"/>
      <point x="175" y="6"/>
      <point x="234" y="7" type="qcurve"/>
      <point x="251" y="7"/>
      <point x="304" y="11"/>
      <point x="357" y="15"/>
      <point x="393" y="18"/>
      <point x="393" y="18" type="qcurve"/>
    </contour>
    <contour>
      <point x="227" y="735" type="move" name="top"/>
    </contour>
  </outline>
</glyph>
<glyph name="l" format="1">
  <advance width="104"/>
  <unicode hex="006C"/>
    <anchor name="top" x="52" y="735"/>
    <anchor name="bottom" x="52" y="0"/>
  <outline>
    <contour>
      <point x="41" y="0" type="line"/>
      <point x="41" y="698" type="line"/>
      <point x="61" y="698" type="line"/>
      <point x="61" y="0" type="line"/>
    </contour>
    <contour>
      <point x="52" y="735" type="move" name="top"/>
    </contour>
    <contour>
      <point x="52" y="0" type="move" name="bottom"/>
    </contour>
  </outline>
</glyph>
<glyph name="q" format="1">
  <advance width="436"/>
  <unicode hex="0071"/>
  <outline>
    <contour>
      <point x="378" y="81" type="line"/>
      <point x="360" y="48"/>
      <point x="301" y="7"/>
      <point x="234" y="-11"/>
      <point x="203" y="-11" type="qcurve" smooth="yes"/>
      <point x="120" y="-11"/>
      <point x="29" y="85"/>
      <point x="29" y="176" type="qcurve" smooth="yes"/>
      <point x="29" y="345" type="line" smooth="yes"/>
      <point x="29" y="424"/>
      <point x="122" y="513"/>
      <point x="204" y="509" type="qcurve" smooth="yes"/>
      <point x="228" y="508"/>
      <point x="290" y="495"/>
      <point x="353" y="470"/>
      <point x="378" y="451" type="qcurve"/>
      <point x="378" y="498" type="line"/>
      <point x="397" y="498" type="line"/>
      <point x="397" y="-211" type="line"/>
      <point x="378" y="-207" type="line"/>
    </contour>
    <contour>
      <point x="378" y="427" type="line"/>
      <point x="362" y="443"/>
      <point x="293" y="474"/>
      <point x="217" y="494"/>
      <point x="188" y="493" type="qcurve" smooth="yes"/>
      <point x="152" y="492"/>
      <point x="89" y="463"/>
      <point x="49" y="400"/>
      <point x="49" y="348" type="qcurve" smooth="yes"/>
      <point x="49" y="169" type="line" smooth="yes"/>
      <point x="49" y="93"/>
      <point x="124" y="9"/>
      <point x="188" y="4" type="qcurve"/>
      <point x="218" y="3"/>
      <point x="284" y="20"/>
      <point x="342" y="56"/>
      <point x="378" y="112"/>
      <point x="378" y="148" type="qcurve" smooth="yes"/>
    </contour>
  </outline>
</glyph>
<glyph name="r" format="1">
  <advance width="329"/>
  <unicode hex="0072"/>
    <anchor name="top" x="164" y="545"/>
    <anchor name="bottom" x="164" y="0"/>
  <outline>
    <contour>
      <point x="308" y="490" type="line"/>
      <point x="297" y="492"/>
      <point x="273" y="494"/>
      <point x="262" y="494" type="qcurve" smooth="yes"/>
      <point x="237" y="494"/>
      <point x="180" y="481"/>
      <point x="106" y="454"/>
      <point x="57" y="432" type="qcurve"/>
      <point x="57" y="0" type="line"/>
      <point x="38" y="0" type="line"/>
      <point x="38" y="499" type="line"/>
      <point x="57" y="499" type="line"/>
      <point x="57" y="453" type="line"/>
      <point x="119" y="479"/>
      <point x="221" y="513"/>
      <point x="264" y="513" type="qcurve" smooth="yes"/>
      <point x="276" y="513"/>
      <point x="299" y="509"/>
      <point x="309" y="506" type="qcurve"/>
    </contour>
    <contour>
      <point x="164" y="545" type="move" name="top"/>
    </contour>
    <contour>
      <point x="164" y="0" type="move" name="bottom"/>
    </contour>
  </outline>
</glyph>
<glyph name="u" format="1">
  <advance width="443"/>
  <unicode hex="0075"/>
    <anchor name="top" x="221" y="545"/>
    <anchor name="ogonek" x="220" y="0"/>
  <outline>
    <contour>
      <point x="383" y="97" type="line"/>
      <point x="364" y="46"/>
      <point x="274" y="-5"/>
      <point x="228" y="-9" type="qcurve"/>
      <point x="200" y="-10"/>
      <point x="134" y="-3"/>
      <point x="73" y="30"/>
      <point x="34" y="98"/>
      <point x="34" y="156" type="qcurve" smooth="yes"/>
      <point x="34" y="499" type="line"/>
      <point x="54" y="499" type="line"/>
      <point x="54" y="155" type="line" smooth="yes"/>
      <point x="54" y="99"/>
      <point x="96" y="32"/>
      <point x="174" y="5"/>
      <point x="228" y="9" type="qcurve" smooth="yes"/>
      <point x="276" y="12"/>
      <point x="346" y="57"/>
      <point x="383" y="128"/>
      <point x="383" y="168" type="qcurve" smooth="yes"/>
      <point x="383" y="499" type="line"/>
      <point x="404" y="499" type="line"/>
      <point x="404" y="0" type="line"/>
      <point x="383" y="0" type="line"/>
    </contour>
    <contour>
      <point x="221" y="545" type="move" name="top"/>
    </contour>
    <contour>
      <point x="220" y="0" type="move" name="ogonek"/>
    </contour>
  </outline>
</glyph>
<glyph name="exclamdown" format="1">
  <advance width="116"/>
  <unicode hex="00A1"/>
  <outline>
    <contour>
      <point x="73" y="18" type="line"/>
      <point x="73" y="0"/>
      <point x="58" y="0" type="qcurve" smooth="yes"/>
      <point x="52" y="0"/>
      <point x="41" y="10"/>
      <point x="41" y="18" type="qcurve"/>
      <point x="50" y="588" type="line"/>
      <point x="65" y="588" type="line"/>
    </contour>
    <contour>
      <point x="74" y="691" type="qcurve" smooth="yes"/>
      <point x="74" y="684"/>
      <point x="64" y="674"/>
      <point x="58" y="674" type="qcurve" smooth="yes"/>
      <point x="51" y="674"/>
      <point x="40" y="684"/>
      <point x="40" y="691" type="qcurve" smooth="yes"/>
      <point x="40" y="699"/>
      <point x="51" y="708"/>
      <point x="58" y="708" type="qcurve" smooth="yes"/>
      <point x="64" y="708"/>
      <point x="74" y="699"/>
    </contour>
  </outline>
</glyph>
<glyph name="dieresis" format="1">
  <advance width="266"/>
  <unicode hex="00A8"/>
  <outline>
    <contour>
      <point x="54" y="724" type="qcurve" smooth="yes"/>
      <point x="62" y="724"/>
      <point x="71" y="714"/>
      <point x="71" y="706" type="qcurve" smooth="yes"/>
      <point x="71" y="699"/>
      <point x="62" y="690"/>
      <point x="54" y="690" type="qcurve" smooth="yes"/>
      <point x="47" y="690"/>
      <point x="37" y="699"/>
      <point x="37" y="706" type="qcurve" smooth="yes"/>
      <point x="37" y="714"/>
      <point x="47" y="724"/>
    </contour>
    <contour>
      <point x="212" y="724" type="qcurve" smooth="yes"/>
      <point x="219" y="724"/>
      <point x="229" y="714"/>
      <point x="229" y="706" type="qcurve" smooth="yes"/>
      <point x="229" y="699"/>
      <point x="219" y="690"/>
      <point x="212" y="690" type="qcurve" smooth="yes"/>
      <point x="205" y="690"/>
      <point x="196" y="699"/>
      <point x="196" y="706" type="qcurve" smooth="yes"/>
      <point x="196" y="714"/>
      <point x="205" y="724"/>
    </contour>
  </outline>
</glyph>
<glyph name="acute" format="1">
  <advance width="266"/>
  <unicode hex="00B4"/>
  <outline>
    <contour>
      <point x="199" y="686" type="qcurve"/>
      <point x="143" y="586" type="line"/>
      <point x="122" y="586" type="line"/>
      <point x="174" y="701" type="line"/>
      <point x="176" y="708"/>
      <point x="189" y="713"/>
      <point x="195" y="710" type="qcurve"/>
      <point x="202" y="706"/>
      <point x="203" y="692"/>
    </contour>
  </outline>
</glyph>
<glyph name="mu" format="1">
  <advance width="460"/>
  <unicode hex="00B5"/>
  <outline>
    <contour>
      <point x="408" y="70" type="line" smooth="yes"/>
      <point x="408" y="56"/>
      <point x="411" y="35"/>
      <point x="421" y="18"/>
      <point x="430" y="10" type="qcurve"/>
      <point x="419" y="-2" type="line"/>
      <point x="419" y="-2"/>
      <point x="404" y="10"/>
      <point x="389" y="37"/>
      <point x="389" y="59" type="qcurve"/>
      <point x="378" y="38"/>
      <point x="338" y="6"/>
      <point x="281" y="-11"/>
      <point x="246" y="-11" type="qcurve" smooth="yes"/>
      <point x="210" y="-11"/>
      <point x="146" y="7"/>
      <point x="86" y="41"/>
      <point x="57" y="65" type="qcurve"/>
      <point x="57" y="-202" type="line"/>
      <point x="39" y="-200" type="line"/>
      <point x="39" y="499" type="line"/>
      <point x="57" y="499" type="line"/>
      <point x="57" y="90" type="line"/>
      <point x="60" y="86"/>
      <point x="88" y="59"/>
      <point x="137" y="28"/>
      <point x="204" y="5"/>
      <point x="246" y="5" type="qcurve" smooth="yes"/>
      <point x="314" y="5"/>
      <point x="389" y="74"/>
      <point x="389" y="135" type="qcurve" smooth="yes"/>
      <point x="389" y="505" type="line"/>
      <point x="408" y="508" type="line"/>
    </contour>
  </outline>
</glyph>
<glyph name="questiondown" format="1">
  <advance width="411"/>
  <unicode hex="00BF"/>
  <outline>
    <contour>
      <point x="381" y="162" type="line"/>
      <point x="381" y="101"/>
      <point x="329" y="21"/>
      <point x="248" y="-16"/>
      <point x="204" y="-15" type="qcurve" smooth="yes"/>
      <point x="160" y="-14"/>
      <point x="79" y="26"/>
      <point x="28" y="101"/>
      <point x="28" y="156" type="qcurve" smooth="yes"/>
      <point x="28" y="211"/>
      <point x="69" y="285"/>
      <point x="101" y="319" type="qcurve" smooth="yes"/>
      <point x="131" y="351"/>
      <point x="172" y="394"/>
      <point x="196" y="429"/>
      <point x="206" y="470"/>
      <point x="206" y="499" type="qcurve" smooth="yes"/>
      <point x="206" y="511"/>
      <point x="206" y="546"/>
      <point x="206" y="573"/>
      <point x="206" y="573" type="qcurve"/>
      <point x="225" y="573" type="line"/>
      <point x="225" y="505" type="line" smooth="yes"/>
      <point x="225" y="465"/>
      <point x="208" y="413"/>
      <point x="177" y="373"/>
      <point x="134" y="330"/>
      <point x="108" y="299" type="qcurve" smooth="yes"/>
      <point x="86" y="273"/>
      <point x="58" y="228"/>
      <point x="45" y="184"/>
      <point x="45" y="157" type="qcurve" smooth="yes"/>
      <point x="45" y="117"/>
      <point x="85" y="46"/>
      <point x="156" y="3"/>
      <point x="204" y="3" type="qcurve" smooth="yes"/>
      <point x="243" y="3"/>
      <point x="315" y="37"/>
      <point x="361" y="108"/>
      <point x="361" y="162" type="qcurve"/>
    </contour>
    <contour>
      <point x="215" y="695" type="qcurve" smooth="yes"/>
      <point x="223" y="695"/>
      <point x="232" y="687"/>
      <point x="232" y="679" type="qcurve" smooth="yes"/>
      <point x="232" y="672"/>
      <point x="223" y="662"/>
      <point x="215" y="662" type="qcurve" smooth="yes"/>
      <point x="208" y="662"/>
      <point x="198" y="672"/>
      <point x="198" y="679" type="qcurve" smooth="yes"/>
      <point x="198" y="687"/>
      <point x="208" y="695"/>
    </contour>
  </outline>
</glyph>
<glyph name="germandbls" format="1">
  <advance width="462"/>
  <unicode hex="00DF"/>
  <outline>
    <contour>
      <point x="59" y="0" type="line"/>
      <point x="54" y="0"/>
      <point x="44" y="0"/>
      <point x="39" y="0" type="qcurve"/>
      <point x="39" y="541" type="line" smooth="yes"/>
      <point x="39" y="603"/>
      <point x="77" y="671"/>
      <point x="135" y="698"/>
      <point x="165" y="698" type="qcurve" smooth="yes"/>
      <point x="202" y="698"/>
      <point x="255" y="663"/>
      <point x="284" y="610"/>
      <point x="284" y="583" type="qcurve" smooth="yes"/>
      <point x="284" y="551"/>
      <point x="250" y="497"/>
      <point x="214" y="492" type="qcurve"/>
      <point x="212" y="492"/>
      <point x="208" y="492"/>
      <point x="205" y="492"/>
      <point x="203" y="492" type="qcurve"/>
      <point x="196" y="479"/>
      <point x="191" y="454"/>
      <point x="192" y="443" type="qcurve" smooth="yes"/>
      <point x="194" y="410"/>
      <point x="247" y="355"/>
      <point x="326" y="303"/>
      <point x="367" y="272" type="qcurve" smooth="yes"/>
      <point x="391" y="253"/>
      <point x="421" y="207"/>
      <point x="437" y="159"/>
      <point x="437" y="135" type="qcurve"/>
      <point x="438" y="97"/>
      <point x="402" y="30"/>
      <point x="332" y="-11"/>
      <point x="282" y="-11" type="qcurve" smooth="yes"/>
      <point x="232" y="-11"/>
      <point x="165" y="13"/>
      <point x="133" y="36"/>
      <point x="133" y="36" type="qcurve"/>
      <point x="137" y="41"/>
      <point x="144" y="51"/>
      <point x="148" y="55" type="qcurve"/>
      <point x="148" y="55"/>
      <point x="179" y="32"/>
      <point x="236" y="9"/>
      <point x="275" y="9" type="qcurve" smooth="yes"/>
      <point x="333" y="9"/>
      <point x="394" y="51"/>
      <point x="417" y="111"/>
      <point x="417" y="137" type="qcurve" smooth="yes"/>
      <point x="417" y="179"/>
      <point x="384" y="233"/>
      <point x="333" y="274"/>
      <point x="304" y="294" type="qcurve" smooth="yes"/>
      <point x="280" y="311"/>
      <point x="234" y="344"/>
      <point x="196" y="380"/>
      <point x="174" y="421"/>
      <point x="174" y="446" type="qcurve" smooth="yes"/>
      <point x="174" y="459"/>
      <point x="181" y="489"/>
      <point x="189" y="505" type="qcurve"/>
      <point x="230" y="505"/>
      <point x="268" y="552"/>
      <point x="267" y="582" type="qcurve" smooth="yes"/>
      <point x="266" y="605"/>
      <point x="242" y="650"/>
      <point x="198" y="680"/>
      <point x="166" y="680" type="qcurve" smooth="yes"/>
      <point x="59" y="680"/>
      <point x="59" y="539" type="qcurve" smooth="yes"/>
    </contour>
  </outline>
</glyph>
<glyph name="eth" format="1">
  <advance width="418"/>
  <unicode hex="00F0"/>
  <outline>
    <contour>
      <point x="181" y="686" type="qcurve"/>
      <point x="184" y="699" type="line"/>
      <point x="283" y="686"/>
      <point x="392" y="559"/>
      <point x="392" y="469" type="qcurve" smooth="yes"/>
      <point x="392" y="187" type="line" smooth="yes"/>
      <point x="392" y="92"/>
      <point x="295" y="-9"/>
      <point x="206" y="-9" type="qcurve" smooth="yes"/>
      <point x="117" y="-9"/>
      <point x="23" y="96"/>
      <point x="23" y="187" type="qcurve" smooth="yes"/>
      <point x="23" y="245" type="line" smooth="yes"/>
      <point x="23" y="337"/>
      <point x="115" y="433"/>
      <point x="198" y="433" type="qcurve" smooth="yes"/>
      <point x="229" y="433"/>
      <point x="301" y="410"/>
      <point x="361" y="368"/>
      <point x="372" y="339" type="qcurve"/>
      <point x="372" y="469" type="line" smooth="yes"/>
      <point x="372" y="529"/>
      <point x="332" y="610"/>
      <point x="270" y="658"/>
      <point x="205" y="682"/>
    </contour>
    <contour>
      <point x="43" y="251" type="qcurve" smooth="yes"/>
      <point x="43" y="182" type="line" smooth="yes"/>
      <point x="43" y="97"/>
      <point x="134" y="11"/>
      <point x="206" y="11" type="qcurve" smooth="yes"/>
      <point x="277" y="11"/>
      <point x="372" y="91"/>
      <point x="372" y="182" type="qcurve" smooth="yes"/>
      <point x="372" y="273" type="line" smooth="yes"/>
      <point x="372" y="322"/>
      <point x="312" y="387"/>
      <point x="223" y="419"/>
      <point x="179" y="416" type="qcurve" smooth="yes"/>
      <point x="114" y="412"/>
      <point x="43" y="327"/>
    </contour>
    <contour>
      <point x="368" y="690" type="line"/>
      <point x="195" y="514" type="line"/>
      <point x="185" y="524" type="line"/>
      <point x="358" y="700" type="line"/>
    </contour>
  </outline>
</glyph>
<glyph name="divide" format="1">
  <advance width="383"/>
  <unicode hex="00F7"/>
  <outline>
    <contour>
      <point x="30" y="372" type="line"/>
      <point x="30" y="393" type="line"/>
      <point x="349" y="393" type="line"/>
      <point x="349" y="372" type="line"/>
    </contour>
    <contour>
      <point x="190" y="528" type="qcurve" smooth="yes"/>
      <point x="198" y="528"/>
      <point x="208" y="518"/>
      <point x="208" y="510" type="qcurve" smooth="yes"/>
      <point x="208" y="504"/>
      <point x="198" y="494"/>
      <point x="190" y="494" type="qcurve" smooth="yes"/>
      <point x="184" y="494"/>
      <point x="174" y="504"/>
      <point x="174" y="510" type="qcurve" smooth="yes"/>
      <point x="174" y="518"/>
      <point x="184" y="528"/>
    </contour>
    <contour>
      <point x="190" y="271" type="qcurve" smooth="yes"/>
      <point x="198" y="271"/>
      <point x="208" y="262"/>
      <point x="208" y="254" type="qcurve" smooth="yes"/>
      <point x="208" y="247"/>
      <point x="198" y="238"/>
      <point x="190" y="238" type="qcurve" smooth="yes"/>
      <point x="184" y="238"/>
      <point x="174" y="247"/>
      <point x="174" y="254" type="qcurve" smooth="yes"/>
      <point x="174" y="262"/>
      <point x="184" y="271"/>
    </contour>
  </outline>
</glyph>
<glyph name="oslash" format="1">
  <advance width="426"/>
  <unicode hex="00F8"/>
  <outline>
    <contour>
      <point x="376" y="585" type="line"/>
      <point x="85" y="-66" type="line"/>
      <point x="64" y="-66" type="line"/>
      <point x="355" y="585" type="line"/>
    </contour>
    <component base="o"/>
  </outline>
</glyph>
<glyph name="dslash" format="1">
  <advance width="455"/>
  <unicode hex="0111"/>
  <outline>
    <contour>
      <point x="459" y="595" type="line"/>
      <point x="459" y="615" type="line"/>
      <point x="223" y="615" type="line"/>
      <point x="223" y="595" type="line"/>
    </contour>
    <component base="d"/>
  </outline>
</glyph>
<glyph name="Hbar" format="1">
  <advance width="513"/>
  <unicode hex="0126"/>
  <outline>
    <contour>
      <point x="503" y="498" type="line"/>
      <point x="6" y="498" type="line"/>
      <point x="6" y="518" type="line"/>
      <point x="503" y="518" type="line"/>
    </contour>
    <component base="Eta"/>
  </outline>
</glyph>
<glyph name="hbar" format="1">
  <advance width="468"/>
  <unicode hex="0127"/>
  <outline>
    <contour>
      <point x="259" y="595" type="line"/>
      <point x="24" y="595" type="line"/>
      <point x="24" y="615" type="line"/>
      <point x="259" y="615" type="line"/>
    </contour>
    <contour>
      <point x="87" y="471" type="line"/>
      <point x="111" y="482"/>
      <point x="193" y="506"/>
      <point x="232" y="508" type="qcurve" smooth="yes"/>
      <point x="265" y="510"/>
      <point x="336" y="503"/>
      <point x="397" y="471"/>
      <point x="436" y="404"/>
      <point x="436" y="345" type="qcurve" smooth="yes"/>
      <point x="436" y="0" type="line"/>
      <point x="417" y="0" type="line"/>
      <point x="417" y="346" type="line" smooth="yes"/>
      <point x="417" y="403"/>
      <point x="376" y="469"/>
      <point x="299" y="496"/>
      <point x="245" y="493" type="qcurve" smooth="yes"/>
      <point x="202" y="491"/>
      <point x="114" y="467"/>
      <point x="87" y="453" type="qcurve"/>
      <point x="87" y="0" type="line"/>
      <point x="67" y="0" type="line"/>
      <point x="67" y="698" type="line"/>
      <point x="87" y="698" type="line"/>
    </contour>
  </outline>
</glyph>
<glyph name="ij" format="1">
  <advance width="459"/>
  <unicode hex="0133"/>
  <outline>
    <contour>
      <point x="57" y="708" type="qcurve" smooth="yes"/>
      <point x="64" y="708"/>
      <point x="74" y="699"/>
      <point x="74" y="691" type="qcurve" smooth="yes"/>
      <point x="74" y="684"/>
      <point x="64" y="674"/>
      <point x="57" y="674" type="qcurve" smooth="yes"/>
      <point x="50" y="674"/>
      <point x="40" y="684"/>
      <point x="40" y="691" type="qcurve" smooth="yes"/>
      <point x="40" y="699"/>
      <point x="50" y="708"/>
    </contour>
    <contour>
      <point x="423" y="691" type="qcurve" smooth="yes"/>
      <point x="423" y="684"/>
      <point x="414" y="674"/>
      <point x="406" y="674" type="qcurve" smooth="yes"/>
      <point x="399" y="674"/>
      <point x="390" y="684"/>
      <point x="390" y="691" type="qcurve" smooth="yes"/>
      <point x="390" y="699"/>
      <point x="399" y="707"/>
      <point x="406" y="707" type="qcurve" smooth="yes"/>
      <point x="414" y="707"/>
      <point x="423" y="699"/>
    </contour>
    <contour>
      <point x="398" y="499" type="line"/>
      <point x="415" y="499" type="line"/>
      <point x="415" y="-67" type="line" smooth="yes"/>
      <point x="415" y="-102"/>
      <point x="399" y="-155"/>
      <point x="380" y="-174" type="qcurve" smooth="yes"/>
      <point x="367" y="-186"/>
      <point x="333" y="-204"/>
      <point x="310" y="-212" type="qcurve"/>
      <point x="304" y="-195" type="line"/>
      <point x="327" y="-186"/>
      <point x="349" y="-173"/>
      <point x="366" y="-160" type="qcurve" smooth="yes"/>
      <point x="398" y="-133"/>
      <point x="398" y="-66" type="qcurve" smooth="yes"/>
      <point x="398" y="99" type="line"/>
      <point x="379" y="47"/>
      <point x="288" y="-4"/>
      <point x="241" y="-8" type="qcurve"/>
      <point x="213" y="-9"/>
      <point x="146" y="-2"/>
      <point x="85" y="31"/>
      <point x="46" y="99"/>
      <point x="46" y="157" type="qcurve" smooth="yes"/>
      <point x="46" y="499" type="line"/>
      <point x="66" y="499" type="line"/>
      <point x="66" y="156" type="line" smooth="yes"/>
      <point x="66" y="100"/>
      <point x="108" y="33"/>
      <point x="187" y="6"/>
      <point x="240" y="10" type="qcurve" smooth="yes"/>
      <point x="288" y="13"/>
      <point x="359" y="58"/>
      <point x="398" y="129"/>
      <point x="398" y="169" type="qcurve" smooth="yes"/>
    </contour>
  </outline>
</glyph>
<glyph name="dotaccent" format="1">
  <advance width="266"/>
  <unicode hex="02D9"/>
  <outline>
    <contour>
      <point x="133" y="732" type="qcurve" smooth="yes"/>
      <point x="140" y="732"/>
      <point x="149" y="722"/>
      <point x="149" y="714" type="qcurve" smooth="yes"/>
      <point x="149" y="707"/>
      <point x="140" y="697"/>
      <point x="133" y="697" type="qcurve" smooth="yes"/>
      <point x="126" y="697"/>
      <point x="116" y="707"/>
      <point x="116" y="714" type="qcurve" smooth="yes"/>
      <point x="116" y="722"/>
      <point x="126" y="732"/>
    </contour>
  </outline>
</glyph>
<glyph name="hungarumlaut" format="1">
  <advance width="266"/>
  <unicode hex="02DD"/>
  <outline>
    <contour>
      <point x="142" y="682" type="qcurve"/>
      <point x="87" y="582" type="line"/>
      <point x="66" y="582" type="line"/>
      <point x="116" y="696" type="line" smooth="yes"/>
      <point x="119" y="703"/>
      <point x="132" y="709"/>
      <point x="138" y="705" type="qcurve"/>
      <point x="144" y="702"/>
      <point x="146" y="688"/>
    </contour>
    <contour>
      <point x="254" y="682" type="qcurve" smooth="yes"/>
      <point x="198" y="582" type="line"/>
      <point x="177" y="582" type="line"/>
      <point x="228" y="696" type="line" smooth="yes"/>
      <point x="231" y="703"/>
      <point x="244" y="709"/>
      <point x="249" y="705" type="qcurve"/>
      <point x="256" y="702"/>
      <point x="257" y="688"/>
    </contour>
  </outline>
</glyph>
<glyph name="Zeta" format="1">
  <advance width="540"/>
  <unicode hex="0396"/>
  <outline>
    <contour>
      <point x="506" y="698" type="line"/>
      <point x="506" y="679" type="line"/>
      <point x="51" y="19" type="line"/>
      <point x="513" y="19" type="line"/>
      <point x="513" y="0" type="line"/>
      <point x="27" y="0" type="line"/>
      <point x="27" y="19" type="line"/>
      <point x="482" y="679" type="line"/>
      <point x="41" y="679" type="line"/>
      <point x="40" y="698" type="line"/>
    </contour>
  </outline>
</glyph>
<glyph name="Xi" format="1">
  <advance width="559"/>
  <unicode hex="039E"/>
  <outline>
    <contour>
      <point x="22" y="593" type="line"/>
      <point x="38" y="649"/>
      <point x="108" y="698"/>
      <point x="167" y="698" type="qcurve" smooth="yes"/>
      <point x="491" y="698" type="line"/>
      <point x="482" y="678" type="line"/>
      <point x="167" y="678" type="line" smooth="yes"/>
      <point x="107" y="678"/>
      <point x="56" y="630"/>
      <point x="40" y="586" type="qcurve"/>
    </contour>
    <contour>
      <point x="414" y="342" type="line"/>
      <point x="148" y="342" type="line"/>
      <point x="148" y="362" type="line"/>
      <point x="414" y="362" type="line"/>
    </contour>
    <contour>
      <point x="385" y="20" type="line" smooth="yes"/>
      <point x="446" y="20"/>
      <point x="496" y="68"/>
      <point x="511" y="113" type="qcurve"/>
      <point x="530" y="106" type="line"/>
      <point x="515" y="50"/>
      <point x="444" y="0"/>
      <point x="385" y="0" type="qcurve" smooth="yes"/>
      <point x="62" y="0" type="line"/>
      <point x="70" y="20" type="line"/>
    </contour>
  </outline>
</glyph>
<glyph name="Pi" format="1">
  <advance width="513"/>
  <unicode hex="03A0"/>
  <outline>
    <contour>
      <point x="450" y="0" type="line"/>
      <point x="450" y="678" type="line"/>
      <point x="61" y="678" type="line"/>
      <point x="61" y="0" type="line"/>
      <point x="41" y="0" type="line"/>
      <point x="41" y="698" type="line"/>
      <point x="470" y="698" type="line"/>
      <point x="470" y="0" type="line"/>
    </contour>
  </outline>
</glyph>
<glyph name="Upsilon" format="1">
  <advance width="513"/>
  <unicode hex="03A5"/>
  <outline>
    <contour>
      <point x="472" y="145" type="line" smooth="yes"/>
      <point x="472" y="82"/>
      <point x="420" y="6"/>
      <point x="368" y="-7" type="qcurve"/>
      <point x="362" y="11" type="line"/>
      <point x="381" y="16"/>
      <point x="423" y="40"/>
      <point x="452" y="97"/>
      <point x="452" y="152" type="qcurve" smooth="yes"/>
      <point x="452" y="350" type="line"/>
      <point x="444" y="332"/>
      <point x="400" y="282"/>
      <point x="320" y="244"/>
      <point x="259" y="244" type="qcurve" smooth="yes"/>
      <point x="206" y="244"/>
      <point x="122" y="271"/>
      <point x="93" y="296" type="qcurve" smooth="yes"/>
      <point x="62" y="322"/>
      <point x="30" y="400"/>
      <point x="30" y="452" type="qcurve" smooth="yes"/>
      <point x="30" y="698" type="line"/>
      <point x="49" y="698" type="line"/>
      <point x="49" y="457" type="line" smooth="yes"/>
      <point x="49" y="409"/>
      <point x="76" y="335"/>
      <point x="104" y="311" type="qcurve" smooth="yes"/>
      <point x="130" y="287"/>
      <point x="207" y="263"/>
      <point x="259" y="263" type="qcurve" smooth="yes"/>
      <point x="341" y="263"/>
      <point x="392" y="304" type="qcurve" smooth="yes"/>
      <point x="421" y="326"/>
      <point x="452" y="393"/>
      <point x="452" y="430" type="qcurve" smooth="yes"/>
      <point x="452" y="698" type="line"/>
      <point x="472" y="698" type="line"/>
    </contour>
  </outline>
</glyph>
<glyph name="beta" format="1">
  <advance width="441"/>
  <unicode hex="03B2"/>
  <outline>
    <contour>
      <point x="39" y="520" type="line" smooth="yes"/>
      <point x="39" y="568"/>
      <point x="80" y="651"/>
      <point x="156" y="701"/>
      <point x="207" y="701" type="qcurve" smooth="yes"/>
      <point x="277" y="701"/>
      <point x="354" y="617"/>
      <point x="350" y="552" type="qcurve"/>
      <point x="349" y="510"/>
      <point x="302" y="432"/>
      <point x="240" y="403" type="qcurve"/>
      <point x="262" y="404" type="line"/>
      <point x="312" y="404"/>
      <point x="372" y="375"/>
      <point x="402" y="330"/>
      <point x="411" y="277"/>
      <point x="411" y="253" type="qcurve" smooth="yes"/>
      <point x="411" y="168" type="line" smooth="yes"/>
      <point x="411" y="109"/>
      <point x="375" y="29"/>
      <point x="292" y="-11"/>
      <point x="219" y="-11" type="qcurve" smooth="yes"/>
      <point x="207" y="-11"/>
      <point x="147" y="-7"/>
      <point x="81" y="-3"/>
      <point x="59" y="-2" type="qcurve"/>
      <point x="59" y="-212" type="line"/>
      <point x="39" y="-206" type="line"/>
    </contour>
    <contour>
      <point x="59" y="520" type="qcurve" smooth="yes"/>
      <point x="59" y="345" type="line"/>
      <point x="188" y="398" type="line"/>
      <point x="247" y="421"/>
      <point x="325" y="489"/>
      <point x="330" y="553" type="qcurve"/>
      <point x="333" y="609"/>
      <point x="267" y="681"/>
      <point x="208" y="681" type="qcurve" smooth="yes"/>
      <point x="162" y="681"/>
      <point x="95" y="636"/>
      <point x="59" y="563"/>
    </contour>
    <contour>
      <point x="59" y="18" type="line"/>
      <point x="59" y="18"/>
      <point x="95" y="15"/>
      <point x="148" y="11"/>
      <point x="202" y="7"/>
      <point x="219" y="7" type="qcurve"/>
      <point x="278" y="6"/>
      <point x="348" y="33"/>
      <point x="383" y="79"/>
      <point x="394" y="134"/>
      <point x="394" y="161" type="qcurve" smooth="yes"/>
      <point x="394" y="250" type="line" smooth="yes"/>
      <point x="394" y="287"/>
      <point x="372" y="348"/>
      <point x="316" y="385"/>
      <point x="264" y="385" type="qcurve" smooth="yes"/>
      <point x="235" y="385"/>
      <point x="178" y="373"/>
      <point x="151" y="362" type="qcurve" smooth="yes"/>
      <point x="133" y="355"/>
      <point x="90" y="337"/>
      <point x="59" y="324"/>
      <point x="59" y="324" type="qcurve"/>
    </contour>
  </outline>
</glyph>
<glyph name="gamma" format="1">
  <advance width="499"/>
  <unicode hex="03B3"/>
  <outline>
    <contour>
      <point x="479" y="492" type="qcurve"/>
      <point x="450" y="479"/>
      <point x="419" y="443"/>
      <point x="403" y="403"/>
      <point x="396" y="384" type="qcurve"/>
      <point x="252" y="-91" type="line" smooth="yes"/>
      <point x="247" y="-107"/>
      <point x="228" y="-144"/>
      <point x="197" y="-177"/>
      <point x="148" y="-198"/>
      <point x="113" y="-198" type="qcurve"/>
      <point x="108" y="-179" type="line"/>
      <point x="156" y="-179"/>
      <point x="206" y="-145"/>
      <point x="229" y="-98"/>
      <point x="235" y="-79" type="qcurve" smooth="yes"/>
      <point x="257" y="-6" type="line"/>
      <point x="223" y="-4"/>
      <point x="173" y="29"/>
      <point x="139" y="88"/>
      <point x="127" y="128" type="qcurve" smooth="yes"/>
      <point x="119" y="156"/>
      <point x="92" y="247"/>
      <point x="62" y="349"/>
      <point x="36" y="440"/>
      <point x="19" y="498"/>
      <point x="19" y="498" type="qcurve"/>
      <point x="38" y="498" type="line"/>
      <point x="38" y="498"/>
      <point x="53" y="447"/>
      <point x="77" y="366"/>
      <point x="103" y="274"/>
      <point x="127" y="193"/>
      <point x="143" y="140"/>
      <point x="143" y="139" type="qcurve"/>
      <point x="162" y="77"/>
      <point x="216" y="15"/>
      <point x="264" y="15" type="qcurve"/>
      <point x="264" y="15"/>
      <point x="277" y="57"/>
      <point x="298" y="127"/>
      <point x="323" y="210"/>
      <point x="349" y="294"/>
      <point x="371" y="365"/>
      <point x="377" y="386" type="qcurve" smooth="yes"/>
      <point x="387" y="418"/>
      <point x="408" y="462"/>
      <point x="442" y="493"/>
      <point x="469" y="506" type="qcurve"/>
      <point x="475" y="498"/>
    </contour>
  </outline>
</glyph>
<glyph name="kappa" format="1">
  <advance width="428"/>
  <unicode hex="03BA"/>
  <outline>
    <contour>
      <point x="291" y="112" type="line"/>
      <point x="326" y="66"/>
      <point x="383" y="19"/>
      <point x="406" y="19" type="qcurve"/>
      <point x="406" y="-1" type="line"/>
      <point x="380" y="-1"/>
      <point x="349" y="22" type="qcurve" smooth="yes"/>
      <point x="341" y="28"/>
      <point x="323" y="44"/>
      <point x="314" y="54" type="qcurve"/>
      <point x="306" y="64"/>
      <point x="288" y="85"/>
      <point x="280" y="98" type="qcurve"/>
      <point x="151" y="277" type="line"/>
      <point x="56" y="178" type="line"/>
      <point x="56" y="0" type="line"/>
      <point x="38" y="0" type="line"/>
      <point x="38" y="510" type="line"/>
      <point x="56" y="506" type="line"/>
      <point x="56" y="205" type="line"/>
      <point x="328" y="499" type="line"/>
      <point x="354" y="499" type="line"/>
      <point x="163" y="291" type="line"/>
    </contour>
  </outline>
</glyph>
<glyph name="pi" format="1">
  <advance width="468"/>
  <unicode hex="03C0"/>
  <outline>
    <contour>
      <point x="413" y="77" type="line" smooth="yes"/>
      <point x="413" y="58"/>
      <point x="426" y="30"/>
      <point x="438" y="21" type="qcurve"/>
      <point x="425" y="4" type="line"/>
      <point x="418" y="10"/>
      <point x="406" y="25"/>
      <point x="399" y="44"/>
      <point x="395" y="66"/>
      <point x="395" y="79" type="qcurve"/>
      <point x="397" y="482" type="line"/>
      <point x="54" y="482" type="line"/>
      <point x="54" y="0" type="line"/>
      <point x="38" y="0" type="line"/>
      <point x="38" y="498" type="line"/>
      <point x="413" y="498" type="line"/>
    </contour>
  </outline>
</glyph>
<glyph name="sigma1" format="1">
  <advance width="335"/>
  <unicode hex="03C2"/>
  <outline>
    <contour>
      <point x="41" y="283" type="line" smooth="yes"/>
      <point x="41" y="246"/>
      <point x="67" y="191"/>
      <point x="109" y="162" type="qcurve" smooth="yes"/>
      <point x="129" y="149"/>
      <point x="174" y="117"/>
      <point x="208" y="94" type="qcurve" smooth="yes"/>
      <point x="232" y="79"/>
      <point x="265" y="44"/>
      <point x="281" y="4"/>
      <point x="281" y="-22" type="qcurve" smooth="yes"/>
      <point x="281" y="-51"/>
      <point x="252" y="-97"/>
      <point x="212" y="-131"/>
      <point x="193" y="-142" type="qcurve"/>
      <point x="183" y="-124" type="line"/>
      <point x="201" y="-113"/>
      <point x="237" y="-83"/>
      <point x="261" y="-45"/>
      <point x="261" y="-22" type="qcurve" smooth="yes"/>
      <point x="261" y="9"/>
      <point x="228" y="57"/>
      <point x="197" y="77" type="qcurve" smooth="yes"/>
      <point x="162" y="101"/>
      <point x="118" y="133"/>
      <point x="98" y="145" type="qcurve"/>
      <point x="55" y="175"/>
      <point x="21" y="239"/>
      <point x="21" y="283" type="qcurve"/>
      <point x="21" y="283"/>
      <point x="21" y="303"/>
      <point x="21" y="332"/>
      <point x="21" y="362"/>
      <point x="21" y="384"/>
      <point x="21" y="385" type="qcurve"/>
      <point x="21" y="427"/>
      <point x="74" y="479"/>
      <point x="150" y="503"/>
      <point x="184" y="503" type="qcurve" smooth="yes"/>
      <point x="222" y="503"/>
      <point x="277" y="486"/>
      <point x="308" y="469"/>
      <point x="308" y="468" type="qcurve"/>
      <point x="298" y="453" type="line"/>
      <point x="298" y="453"/>
      <point x="269" y="469"/>
      <point x="218" y="485"/>
      <point x="184" y="485" type="qcurve" smooth="yes"/>
      <point x="154" y="485"/>
      <point x="87" y="464"/>
      <point x="41" y="418"/>
      <point x="41" y="382" type="qcurve" smooth="yes"/>
    </contour>
  </outline>
</glyph>
<glyph name="quoteleft" format="1">
  <advance width="103"/>
  <unicode hex="2018"/>
  <outline>
    <contour>
      <point x="74" y="665" type="line"/>
      <point x="59" y="652"/>
      <point x="49" y="621"/>
      <point x="47" y="610" type="qcurve"/>
      <point x="52" y="609"/>
      <point x="60" y="601"/>
      <point x="60" y="595" type="qcurve" smooth="yes"/>
      <point x="60" y="588"/>
      <point x="50" y="579"/>
      <point x="42" y="579" type="qcurve" smooth="yes"/>
      <point x="35" y="579"/>
      <point x="27" y="588"/>
      <point x="27" y="595" type="qcurve" smooth="yes"/>
      <point x="27" y="615"/>
      <point x="38" y="644"/>
      <point x="54" y="663"/>
      <point x="65" y="672"/>
      <point x="65" y="672" type="qcurve"/>
    </contour>
  </outline>
</glyph>
<glyph name="quotesinglbase" format="1">
  <advance width="113"/>
  <unicode hex="201A"/>
  <outline>
    <contour>
      <point x="31" y="-31" type="line"/>
      <point x="46" y="-17"/>
      <point x="56" y="14"/>
      <point x="57" y="24" type="qcurve"/>
      <point x="52" y="26"/>
      <point x="46" y="34"/>
      <point x="46" y="40" type="qcurve" smooth="yes"/>
      <point x="46" y="48"/>
      <point x="55" y="57"/>
      <point x="62" y="57" type="qcurve" smooth="yes"/>
      <point x="70" y="57"/>
      <point x="79" y="48"/>
      <point x="79" y="40" type="qcurve" smooth="yes"/>
      <point x="79" y="20"/>
      <point x="67" y="-9"/>
      <point x="52" y="-28"/>
      <point x="40" y="-37"/>
      <point x="40" y="-37" type="qcurve"/>
    </contour>
  </outline>
</glyph>
<glyph name="ellipsis" format="1">
  <advance width="454"/>
  <unicode hex="2026"/>
  <outline>
    <contour>
      <point x="51" y="30" type="qcurve" smooth="yes"/>
      <point x="58" y="30"/>
      <point x="68" y="20"/>
      <point x="68" y="12" type="qcurve" smooth="yes"/>
      <point x="68" y="5"/>
      <point x="58" y="-4"/>
      <point x="51" y="-4" type="qcurve" smooth="yes"/>
      <point x="44" y="-4"/>
      <point x="35" y="5"/>
      <point x="35" y="12" type="qcurve" smooth="yes"/>
      <point x="35" y="20"/>
      <point x="44" y="30"/>
    </contour>
    <contour>
      <point x="225" y="30" type="qcurve" smooth="yes"/>
      <point x="233" y="30"/>
      <point x="243" y="20"/>
      <point x="243" y="12" type="qcurve" smooth="yes"/>
      <point x="243" y="5"/>
      <point x="233" y="-4"/>
      <point x="225" y="-4" type="qcurve" smooth="yes"/>
      <point x="218" y="-4"/>
      <point x="209" y="5"/>
      <point x="209" y="12" type="qcurve" smooth="yes"/>
      <point x="209" y="20"/>
      <point x="218" y="30"/>
    </contour>
    <contour>
      <point x="404" y="30" type="qcurve" smooth="yes"/>
      <point x="411" y="30"/>
      <point x="421" y="20"/>
      <point x="421" y="12" type="qcurve" smooth="yes"/>
      <point x="421" y="5"/>
      <point x="411" y="-4"/>
      <point x="404" y="-4" type="qcurve" smooth="yes"/>
      <point x="397" y="-4"/>
      <point x="388" y="5"/>
      <point x="388" y="12" type="qcurve" smooth="yes"/>
      <point x="388" y="20"/>
      <point x="397" y="30"/>
    </contour>
  </outline>
</glyph>
<glyph name="guilsinglleft" format="1">
  <advance width="261"/>
  <unicode hex="2039"/>
  <outline>
    <contour>
      <point x="26" y="266" type="line"/>
      <point x="212" y="453" type="line"/>
      <point x="228" y="440" type="line"/>
      <point x="54" y="266" type="line"/>
      <point x="227" y="96" type="line"/>
      <point x="212" y="79" type="line"/>
    </contour>
  </outline>
</glyph>
<glyph name="commaaccent" format="1">
  <advance width="266"/>
  <unicode hex="F6C3"/>
  <outline>
    <contour>
      <point x="109" y="-167" type="line"/>
      <point x="123" y="-153"/>
      <point x="134" y="-124"/>
      <point x="135" y="-113" type="qcurve"/>
      <point x="130" y="-111"/>
      <point x="124" y="-103"/>
      <point x="124" y="-97" type="qcurve" smooth="yes"/>
      <point x="124" y="-90"/>
      <point x="133" y="-80"/>
      <point x="140" y="-80" type="qcurve" smooth="yes"/>
      <point x="148" y="-80"/>
      <point x="157" y="-89"/>
      <point x="157" y="-97" type="qcurve" smooth="yes"/>
      <point x="157" y="-117"/>
      <point x="145" y="-146"/>
      <point x="130" y="-165"/>
      <point x="118" y="-174"/>
      <point x="118" y="-174" type="qcurve"/>
    </contour>
  </outline>
</glyph>
<glyph name="ff" format="1">
  <advance width="491"/>
  <unicode hex="FB00"/>
  <outline>
    <contour>
      <point x="466" y="667" type="line"/>
      <point x="436" y="678"/>
      <point x="376" y="680"/>
      <point x="347" y="664" type="qcurve"/>
      <point x="321" y="648"/>
      <point x="292" y="597"/>
      <point x="292" y="559" type="qcurve" smooth="yes"/>
      <point x="292" y="498" type="line"/>
      <point x="441" y="498" type="line"/>
      <point x="433" y="482" type="line"/>
      <point x="292" y="482" type="line"/>
      <point x="292" y="0" type="line"/>
      <point x="271" y="0" type="line"/>
      <point x="271" y="560" type="line" smooth="yes"/>
      <point x="271" y="586"/>
      <point x="285" y="631"/>
      <point x="298" y="649" type="qcurve"/>
      <point x="276" y="668"/>
      <point x="217" y="686"/>
      <point x="189" y="685" type="qcurve"/>
      <point x="154" y="685"/>
      <point x="95" y="656"/>
      <point x="59" y="599"/>
      <point x="59" y="557" type="qcurve" smooth="yes"/>
      <point x="59" y="498" type="line"/>
      <point x="209" y="498" type="line"/>
      <point x="201" y="482" type="line"/>
      <point x="59" y="482" type="line"/>
      <point x="59" y="0" type="line"/>
      <point x="39" y="0" type="line"/>
      <point x="39" y="560" type="line" smooth="yes"/>
      <point x="39" y="608"/>
      <point x="82" y="671"/>
      <point x="147" y="703"/>
      <point x="180" y="704" type="qcurve" smooth="yes"/>
      <point x="217" y="705"/>
      <point x="279" y="688"/>
      <point x="313" y="662" type="qcurve"/>
      <point x="333" y="680"/>
      <point x="379" y="698"/>
      <point x="405" y="698" type="qcurve" smooth="yes"/>
      <point x="422" y="698"/>
      <point x="461" y="689"/>
      <point x="472" y="681" type="qcurve"/>
    </contour>
  </outline>
</glyph>
<glyph name="fl" format="1">
  <advance width="347"/>
  <unicode hex="FB02"/>
  <outline>
    <contour>
      <point x="288" y="646" type="line"/>
      <point x="266" y="666"/>
      <point x="217" y="685"/>
      <point x="191" y="686" type="qcurve" smooth="yes"/>
      <point x="156" y="687"/>
      <point x="94" y="657"/>
      <point x="57" y="601"/>
      <point x="59" y="563" type="qcurve"/>
      <point x="59" y="498" type="line"/>
      <point x="209" y="498" type="line"/>
      <point x="202" y="482" type="line"/>
      <point x="59" y="482" type="line"/>
      <point x="59" y="0" type="line"/>
      <point x="39" y="0" type="line"/>
      <point x="39" y="560" type="line" smooth="yes"/>
      <point x="39" y="601"/>
      <point x="69" y="657"/>
      <point x="115" y="690"/>
      <point x="167" y="704"/>
      <point x="189" y="704" type="qcurve" smooth="yes"/>
      <point x="221" y="704"/>
      <point x="277" y="679"/>
      <point x="305" y="656" type="qcurve"/>
      <point x="305" y="0" type="line"/>
      <point x="288" y="0" type="line"/>
    </contour>
  </outline>
</glyph>
<glyph name="commaturnedabovecomb" format="1">
  <advance width="266"/>
    <anchor name="top" x="133" y="750"/>
    <anchor name="_top" x="133" y="600"/>
    <anchor name="top.1" x="133" y="750"/>
    <anchor name="_top.1" x="133" y="600"/>
  <outline>
    <contour>
      <point x="157" y="679" type="line"/>
      <point x="143" y="665"/>
      <point x="133" y="635"/>
      <point x="131" y="624" type="qcurve"/>
      <point x="136" y="622"/>
      <point x="142" y="614"/>
      <point x="142" y="608" type="qcurve" smooth="yes"/>
      <point x="142" y="601"/>
      <point x="133" y="592"/>
      <point x="126" y="592" type="qcurve" smooth="yes"/>
      <point x="119" y="592"/>
      <point x="109" y="601"/>
      <point x="109" y="608" type="qcurve" smooth="yes"/>
      <point x="109" y="628"/>
      <point x="121" y="657"/>
      <point x="136" y="676"/>
      <point x="148" y="685"/>
      <point x="148" y="685" type="qcurve"/>
    </contour>
    <contour>
      <point x="133" y="750" type="move" name="top"/>
    </contour>
    <contour>
      <point x="133" y="600" type="move" name="_top"/>
    </contour>
    <contour>
      <point x="133" y="750" type="move" name="top.1"/>
    </contour>
    <contour>
      <point x="133" y="600" type="move" name="_top.1"/>
    </contour>
  </outline>
</glyph>
<glyph name="ft" format="1">
  <advance width="485"/>
  <outline>
    <contour>
      <point x="305" y="132" type="line" smooth="yes"/>
      <point x="305" y="77"/>
      <point x="349" y="21"/>
      <point x="400" y="4" type="qcurve"/>
      <point x="392" y="-13" type="line"/>
      <point x="336" y="3"/>
      <point x="285" y="73"/>
      <point x="285" y="132" type="qcurve" smooth="yes"/>
      <point x="285" y="646" type="line"/>
      <point x="265" y="666"/>
      <point x="213" y="685"/>
      <point x="187" y="686" type="qcurve" smooth="yes"/>
      <point x="152" y="687"/>
      <point x="91" y="657"/>
      <point x="54" y="601"/>
      <point x="55" y="563" type="qcurve"/>
      <point x="55" y="498" type="line"/>
      <point x="208" y="498" type="line"/>
      <point x="201" y="482" type="line"/>
      <point x="55" y="482" type="line"/>
      <point x="55" y="0" type="line"/>
      <point x="51" y="0"/>
      <point x="43" y="0"/>
      <point x="39" y="0" type="qcurve"/>
      <point x="39" y="560" type="line" smooth="yes"/>
      <point x="39" y="601"/>
      <point x="69" y="657"/>
      <point x="115" y="690"/>
      <point x="167" y="704"/>
      <point x="189" y="704" type="qcurve" smooth="yes"/>
      <point x="221" y="704"/>
      <point x="277" y="679"/>
      <point x="305" y="656" type="qcurve"/>
      <point x="305" y="498" type="line"/>
      <point x="462" y="498" type="line"/>
      <point x="454" y="482" type="line"/>
      <point x="305" y="482" type="line"/>
    </contour>
  </outline>
</glyph>
